<svg xmlns="http://www.w3.org/2000/svg" version="1.1" xmlns:xlink="http://www.w3.org/1999/xlink" xmlns:svgjs="http://svgjs.dev/svgjs" width="1000" height="1125" viewBox="0 0 1000 1125"><g transform="matrix(1,0,0,1,1.7053025658242404e-13,0)"><svg viewBox="0 0 320 360" data-background-color="#ffffff" preserveAspectRatio="xMidYMid meet" height="1125" width="1000" xmlns="http://www.w3.org/2000/svg" xmlns:xlink="http://www.w3.org/1999/xlink"><g id="tight-bounds" transform="matrix(1,0,0,1,0,0)"><svg viewBox="0 0 320 360" height="360" width="320"><g><svg></svg></g><g><svg viewBox="0 0 320 360" height="360" width="320"><g><path xmlns="http://www.w3.org/2000/svg" d="M20.961 227.22l3.726 4.658-1.863-6.056c-0.466-2.795-3.726 0.466-1.863 1.398M25.153 224.425c1.397 2.329 2.795 4.658 2.795 6.987 0 3.261 2.795 4.658 5.123 5.589-3.261-3.726-5.124-13.974-7.918-12.576M204.017 26.929c7.918 0 15.371-0.932 23.756 0.931 20.495 5.124 37.729 15.371 49.374 29.811l32.606 52.169c1.397 13.042 4.192 27.482 3.726 43.319 3.261 0 2.795-4.658 6.521-5.59-3.726 9.316-5.59 20.961-6.521 34.469-2.329-7.453 0-18.632 0.466-24.687-3.261 5.124-5.124 1.397-5.124-0.932 0.466-3.726-1.397-3.261-2.795-4.658-5.124-4.658-8.384-9.782-12.11-17.7 2.329-6.055 2.795-14.905-4.658-19.563-2.329-1.397-5.124-3.726-6.521-7.453-1.863-5.124-5.124-11.179-4.193-19.097 0.466-2.329-6.987 5.124-11.179 1.863-18.166-12.576-36.332-27.016-58.224-39.127-11.645 0-20.029-4.192-24.221-9.316-3.726-4.658-0.932-10.713 4.658-11.179 3.261 0 6.987-0.932 9.782 0.932 0.466-1.863 2.329-4.192 4.657-4.192M157.904 16.215l0.932 0.466c4.658 0.932 6.987 7.453 12.11 5.124 0 3.261 0.466 6.521-0.466 8.85-1.397 3.726-5.59 3.726-8.85 3.726-31.208-1.863-49.374 11.179-68.471 22.358-5.124 3.261-10.713 5.59-14.906 9.782-20.029 18.632-41.921 35.866-47.045 70.335l-4.192 38.195c-0.466 4.192-5.124 8.384-4.192 13.508l3.26 22.824c-3.261-3.261-5.124 0.932-4.192 2.795 0.466 1.397 2.329 6.055 5.124 1.863 3.726 6.987 7.453 20.495 12.576 26.55 15.837 18.632 36.332 35.4 53.101 52.169 4.192-0.932 7.453-0.932 8.384-3.727 1.397 2.795-1.397 5.59-3.726 6.056 7.453 4.658 15.837 8.85 27.016 9.781 14.44 0.932 27.948 3.261 40.524 6.522 6.521-1.863 13.042-2.795 20.029-3.261 2.329 0 3.726-3.726 6.521-4.658l0.466-4.658c2.795 4.192 2.329-1.397 0.466-4.192 3.261 2.795 4.192 5.124 5.589 6.987 0-1.397 3.726-6.521 3.727-0.466l0.931-6.055c1.397-0.932 1.863 5.124 3.261 0.931 1.397-4.192 4.192-0.932 6.987-2.329-0.932 1.863-0.466 5.59 2.794 3.261l3.727-3.261c2.329 5.59 6.055 3.261 7.918 2.329 20.495-13.042 40.99-28.413 60.553-43.784l-0.466 6.055 2.329-7.453c2.329 2.329 4.192 0.466 5.124-0.931 2.795-4.658 6.521-9.316 12.577-13.508-7.453 20.029-16.303 35.866-27.482 48.908l-4.658 5.59c0 3.261-0.932 7.453-4.658 7.918-1.863 0.466-5.59-0.932-8.384 1.863-1.397 1.863 3.261 5.59-0.466 2.795-3.261-2.329-6.521 0-10.248 0.932-2.795 0.932 1.863 3.726 2.795 5.589 0.932 1.863 1.863 3.726 1.398 6.056l-5.124-5.59c-6.055 3.261-9.782 9.316-14.906 13.974-2.329 1.863-1.397 5.124-1.397 7.918-3.261 0-6.987-0.932-8.85 0.932-1.397 1.863-0.932 4.658-0.932 7.453-4.658-0.466-5.124-7.453-9.315-6.056-4.192 0.932-8.85 1.397-12.577 3.727 2.795 5.59-4.658 2.329-3.726 3.26-6.987-4.192-13.042-7.453-20.495-4.658-15.837-5.124-35.4-2.795-49.84-0.931 0-2.329 0.466-4.658-0.466-5.124-0.932 2.329-3.726 1.397-3.26 1.397-8.85-6.055-17.7-9.782-27.016-14.905-8.384 0.932-16.303-3.261-18.632-5.59-6.521-6.055-13.974-2.795-20.029-4.192-13.042-3.261-17.7-16.769-19.098-26.084-0.932-4.658-4.658-6.521-6.055-6.056-6.055-19.563-15.371-37.263-22.824-55.429-1.863-4.658-1.397-9.316-1.397-14.44 2.329 0.932 4.658 0.466 4.192-2.794-2.329-15.371-7.918-27.016-13.974-38.195 3.261-15.837 3.726-34.469 11.179-48.443 6.521-12.576 18.632-19.098 27.016-29.811 2.795-3.726 2.795-8.85 5.59-12.11 9.316-9.316 18.632-19.098 28.879-27.482 4.658-3.726 10.247 0 17.234-1.397 2.329-8.384 11.645-15.837 20.495-13.508 3.726 0.932 11.179-8.85 13.508-9.782 3.726-1.397 1.863 3.726 1.863 6.987 8.85-6.987 20.961-10.713 32.14-14.906" fill="#bb84e8" fill-rule="nonzero" stroke="none" stroke-width="1" stroke-linecap="butt" stroke-linejoin="miter" stroke-miterlimit="10" stroke-dasharray="" stroke-dashoffset="0" font-family="none" font-weight="none" font-size="none" text-anchor="none" style="mix-blend-mode: normal" data-fill-palette-color="tertiary"></path></g><g transform="matrix(1,0,0,1,64,114.2596694214876)"><svg viewBox="0 0 192 131.4806611570248" height="131.4806611570248" width="192"><g><svg viewBox="0 0 192 131.4806611570248" height="131.4806611570248" width="192"><g><svg viewBox="0 0 192 131.4806611570248" height="131.4806611570248" width="192"><g id="textblocktransform"><svg viewBox="0 0 192 131.4806611570248" height="131.4806611570248" width="192" id="textblock"><g><svg viewBox="0 0 192 131.4806611570248" height="131.4806611570248" width="192"><path d="M191.55 28.2C190.648 14.552 188.075 10.758 188.075 10.758 180.177-3.299 170.321-0.269 161.466 1.751 145.832 1.833 130.262 4.835 114.664 6.446 81.926 6.691 48.907 2.652 16.331 12.614 13.271 15.672-3.175 13.215 0.544 29.947 1.519 36.907 5.076 44.632 4.967 51.019 5.455 52.138 6.132 49.572 6.42 51.183 7.431 55.523 9.083 53.476 10.437 56.041 8.551 62.892 9.905 68.597 11.195 74.575 8.921 76.131 6.005 75.394 4.696 80.552 4.561 84.292 3.83 83.582 3.027 83.418 2.44 83.309 1.257 83.719 1.456 84.892 2.133 88.905-0.774 91.225 1.05 95.155-0.205 99.414 1.916 103.098 1.627 107.711 1.591 108.639 1.79 109.431 2.106 109.649 3.505 110.823 1.465 113.116 1.682 115.6 16.033 132.577 31.604 120.84 46.308 128.647 50.126 123.188 47.256 130.585 48.781 129.438 49.972 128.101 50.839 133.642 52.184 130.503 52.392 129.602 52.076 127.473 52.816 127.882 53.204 128.101 53.547 128.046 53.601 126.791 53.682 124.907 52.969 126.081 52.78 125.098 54.829 120.131 54.323 131.949 56.246 131.458 56.156 130.012 55.596 127.937 56.742 128.21 57.88 126.136 57.916 124.416 58.927 129.083 58.963 130.093 59.143 130.803 59.432 131.294 62.591 126.217 65.732 133.096 69.045 130.803 71.076 128.292 73.026 132.168 75.084 131.213 75.806 130.448 76.537 129.083 77.232 131.376 85.744 131.868 94.815 129.82 102.885 131.458 124.449 128.401 147.493 132.714 170.23 128.674 175.592 127.118 181.161 124.907 186.387 123.133 186.387 123.133 190.621 118.275 190.621 96.438S191.523 77.332 191.659 59.945C191.794 42.557 192.426 41.848 191.523 28.2Z" opacity="1" fill="#bb84e8" data-fill-palette-color="tertiary"></path><g transform="matrix(1,0,0,1,27.072000000000003,19.1)"><svg width="137.856" viewBox="0 -32.75 48.400001525878906 32.75" height="93.2806611570248" data-palette-color="#ffffff"><path d="M5.4 0L0 0 7.95-32.75 17.3-32.75 25 0 19.5 0 17.95-6.25 6.85-6.25 5.4 0ZM7.9-10.9L16.85-10.9 13.15-28.1 12.05-28.1 7.9-10.9ZM37.4-11.95L37.4-11.95Q34.7-11.8 34.4-11.8L34.4-11.8 32.05-11.8 32.05 0 26.85 0 26.85-32.75 37.15-32.75Q42.6-32.75 45.4-30.33 48.2-27.9 48.2-22.25L48.2-22.25Q48.2-15.75 42.6-13.1L42.6-13.1Q46.05-6.55 48.4 0L48.4 0 42.8 0Q40.55-6.05 37.4-11.95ZM36.15-28.15L36.15-28.15 32.05-28.15 32.05-16.6 36.2-16.6Q42.9-16.6 42.9-22.25L42.9-22.25Q42.9-25.4 41.3-26.78 39.7-28.15 36.15-28.15Z" opacity="1" transform="matrix(1,0,0,1,0,0)" fill="#ffffff" class="wordmark-text-0" data-fill-palette-color="quaternary" id="text-0"></path></svg></g></svg></g></svg></g></svg></g><g></g></svg></g></svg></g></svg></g><defs></defs></svg><rect width="320" height="360" fill="none" stroke="none" visibility="hidden"></rect></g></svg></g></svg>